{
    "asset" : {
        "generator" : "Khronos glTF Blender I/O v3.3.32",
        "version" : "2.0"
    },
    "extensionsUsed" : [
        "KHR_materials_specular",
        "KHR_materials_ior"
    ],
    "scene" : 0,
    "scenes" : [
        {
            "name" : "Scene",
            "nodes" : [
                0,
                1
            ]
        }
    ],
    "nodes" : [
        {
            "mesh" : 0,
            "name" : "Cube.006",
            "rotation" : [
                0.5000000596046448,
                -0.5,
                -0.5,
                0.5
            ],
            "scale" : [
                0.11668652296066284,
                0.04187743738293648,
                0.11668652296066284
            ],
            "translation" : [
                1.2970765829086304,
                0.8232077360153198,
                -1.2154324054718018
            ]
        },
        {
            "mesh" : 1,
            "name" : "Cube.007",
            "rotation" : [
                0.5000000596046448,
                -0.5,
                -0.5,
                0.5
            ],
            "scale" : [
                0.040337126702070236,
                0.014278080314397812,
                0.039784178137779236
            ],
            "translation" : [
                1.2996091842651367,
                0.8234435319900513,
                -1.215437650680542
            ]
        }
    ],
    "materials" : [
        {
            "doubleSided" : true,
            "extensions" : {
                "KHR_materials_specular" : {
                    "specularColorFactor" : [
                        0.3080897632406569,
                        0.3080897632406569,
                        0.3080897632406569
                    ]
                },
                "KHR_materials_ior" : {
                    "ior" : 1.4500000476837158
                }
            },
            "name" : "Buch grau",
            "pbrMetallicRoughness" : {
                "baseColorFactor" : [
                    0.5925776362419128,
                    0.5925776362419128,
                    0.5925776362419128,
                    1
                ],
                "metallicFactor" : 0,
                "roughnessFactor" : 0.7677165269851685
            }
        },
        {
            "doubleSided" : true,
            "name" : "Material.001",
            "pbrMetallicRoughness" : {
                "baseColorTexture" : {
                    "index" : 0
                },
                "metallicFactor" : 0,
                "roughnessFactor" : 0.5
            }
        },
        {
            "doubleSided" : true,
            "name" : "Material.003",
            "pbrMetallicRoughness" : {
                "baseColorTexture" : {
                    "index" : 1
                },
                "metallicFactor" : 0,
                "roughnessFactor" : 0.5
            }
        },
        {
            "doubleSided" : true,
            "name" : "Material.004",
            "pbrMetallicRoughness" : {
                "baseColorTexture" : {
                    "index" : 2
                },
                "metallicFactor" : 0,
                "roughnessFactor" : 0.5
            }
        },
        {
            "doubleSided" : true,
            "extensions" : {
                "KHR_materials_specular" : {
                    "specularColorFactor" : [
                        0.3080897632406569,
                        0.3080897632406569,
                        0.3080897632406569
                    ]
                },
                "KHR_materials_ior" : {
                    "ior" : 1.4500000476837158
                }
            },
            "name" : "seite beige",
            "pbrMetallicRoughness" : {
                "baseColorFactor" : [
                    1,
                    0.9473381042480469,
                    0.779868483543396,
                    1
                ],
                "metallicFactor" : 0,
                "roughnessFactor" : 0.7677165269851685
            }
        }
    ],
    "meshes" : [
        {
            "name" : "Cube.008",
            "primitives" : [
                {
                    "attributes" : {
                        "POSITION" : 0,
                        "NORMAL" : 1,
                        "TEXCOORD_0" : 2
                    },
                    "indices" : 3,
                    "material" : 0
                },
                {
                    "attributes" : {
                        "POSITION" : 4,
                        "NORMAL" : 5,
                        "TEXCOORD_0" : 6
                    },
                    "indices" : 7,
                    "material" : 1
                },
                {
                    "attributes" : {
                        "POSITION" : 8,
                        "NORMAL" : 9,
                        "TEXCOORD_0" : 10
                    },
                    "indices" : 11,
                    "material" : 2
                },
                {
                    "attributes" : {
                        "POSITION" : 12,
                        "NORMAL" : 13,
                        "TEXCOORD_0" : 14
                    },
                    "indices" : 15,
                    "material" : 3
                }
            ]
        },
        {
            "name" : "Cube.009",
            "primitives" : [
                {
                    "attributes" : {
                        "POSITION" : 16,
                        "NORMAL" : 17,
                        "TEXCOORD_0" : 18
                    },
                    "indices" : 19,
                    "material" : 4
                }
            ]
        }
    ],
    "textures" : [
        {
            "sampler" : 0,
            "source" : 0
        },
        {
            "sampler" : 0,
            "source" : 1
        },
        {
            "sampler" : 0,
            "source" : 2
        }
    ],
    "images" : [
        {
            "bufferView" : 8,
            "mimeType" : "image/jpeg",
            "name" : "WDG_M"
        },
        {
            "bufferView" : 13,
            "mimeType" : "image/jpeg",
            "name" : "WDG_M_1"
        },
        {
            "bufferView" : 18,
            "mimeType" : "image/jpeg",
            "name" : "WDG_M_2"
        }
    ],
    "accessors" : [
        {
            "bufferView" : 0,
            "componentType" : 5126,
            "count" : 168,
            "max" : [
                0.7194847464561462,
                0.11547228693962097,
                0.14254999160766602
            ],
            "min" : [
                -0.720253050327301,
                -0.11547121405601501,
                -0.8798999786376953
            ],
            "type" : "VEC3"
        },
        {
            "bufferView" : 1,
            "componentType" : 5126,
            "count" : 168,
            "type" : "VEC3"
        },
        {
            "bufferView" : 2,
            "componentType" : 5126,
            "count" : 168,
            "type" : "VEC2"
        },
        {
            "bufferView" : 3,
            "componentType" : 5123,
            "count" : 252,
            "type" : "SCALAR"
        },
        {
            "bufferView" : 4,
            "componentType" : 5126,
            "count" : 224,
            "max" : [
                0.7194852232933044,
                0.12547001242637634,
                0.15252578258514404
            ],
            "min" : [
                -0.7202531695365906,
                -0.12546885013580322,
                -0.8798999786376953
            ],
            "type" : "VEC3"
        },
        {
            "bufferView" : 5,
            "componentType" : 5126,
            "count" : 224,
            "type" : "VEC3"
        },
        {
            "bufferView" : 6,
            "componentType" : 5126,
            "count" : 224,
            "type" : "VEC2"
        },
        {
            "bufferView" : 7,
            "componentType" : 5123,
            "count" : 336,
            "type" : "SCALAR"
        },
        {
            "bufferView" : 9,
            "componentType" : 5126,
            "count" : 48,
            "max" : [
                0.7194852232933044,
                -0.12287074327468872,
                0.13810908794403076
            ],
            "min" : [
                -0.7190431952476501,
                -0.12546885013580322,
                -0.8798997402191162
            ],
            "type" : "VEC3"
        },
        {
            "bufferView" : 10,
            "componentType" : 5126,
            "count" : 48,
            "type" : "VEC3"
        },
        {
            "bufferView" : 11,
            "componentType" : 5126,
            "count" : 48,
            "type" : "VEC2"
        },
        {
            "bufferView" : 12,
            "componentType" : 5123,
            "count" : 72,
            "type" : "SCALAR"
        },
        {
            "bufferView" : 14,
            "componentType" : 5126,
            "count" : 104,
            "max" : [
                0.7194727063179016,
                0.12325572967529297,
                0.15252578258514404
            ],
            "min" : [
                -0.7189167737960815,
                -0.12325647473335266,
                0.13245868682861328
            ],
            "type" : "VEC3"
        },
        {
            "bufferView" : 15,
            "componentType" : 5126,
            "count" : 104,
            "type" : "VEC3"
        },
        {
            "bufferView" : 16,
            "componentType" : 5126,
            "count" : 104,
            "type" : "VEC2"
        },
        {
            "bufferView" : 17,
            "componentType" : 5123,
            "count" : 156,
            "type" : "SCALAR"
        },
        {
            "bufferView" : 19,
            "componentType" : 5126,
            "count" : 2930,
            "max" : [
                2.050703525543213,
                0.31384289264678955,
                0.4781400263309479
            ],
            "min" : [
                -2.0507071018218994,
                -0.3134303689002991,
                -2.492016553878784
            ],
            "type" : "VEC3"
        },
        {
            "bufferView" : 20,
            "componentType" : 5126,
            "count" : 2930,
            "type" : "VEC3"
        },
        {
            "bufferView" : 21,
            "componentType" : 5126,
            "count" : 2930,
            "type" : "VEC2"
        },
        {
            "bufferView" : 22,
            "componentType" : 5123,
            "count" : 4416,
            "type" : "SCALAR"
        }
    ],
    "bufferViews" : [
        {
            "buffer" : 0,
            "byteLength" : 2016,
            "byteOffset" : 0,
            "target" : 34962
        },
        {
            "buffer" : 0,
            "byteLength" : 2016,
            "byteOffset" : 2016,
            "target" : 34962
        },
        {
            "buffer" : 0,
            "byteLength" : 1344,
            "byteOffset" : 4032,
            "target" : 34962
        },
        {
            "buffer" : 0,
            "byteLength" : 504,
            "byteOffset" : 5376,
            "target" : 34963
        },
        {
            "buffer" : 0,
            "byteLength" : 2688,
            "byteOffset" : 5880,
            "target" : 34962
        },
        {
            "buffer" : 0,
            "byteLength" : 2688,
            "byteOffset" : 8568,
            "target" : 34962
        },
        {
            "buffer" : 0,
            "byteLength" : 1792,
            "byteOffset" : 11256,
            "target" : 34962
        },
        {
            "buffer" : 0,
            "byteLength" : 672,
            "byteOffset" : 13048,
            "target" : 34963
        },
        {
            "buffer" : 0,
            "byteLength" : 661178,
            "byteOffset" : 13720
        },
        {
            "buffer" : 0,
            "byteLength" : 576,
            "byteOffset" : 674900,
            "target" : 34962
        },
        {
            "buffer" : 0,
            "byteLength" : 576,
            "byteOffset" : 675476,
            "target" : 34962
        },
        {
            "buffer" : 0,
            "byteLength" : 384,
            "byteOffset" : 676052,
            "target" : 34962
        },
        {
            "buffer" : 0,
            "byteLength" : 144,
            "byteOffset" : 676436,
            "target" : 34963
        },
        {
            "buffer" : 0,
            "byteLength" : 595956,
            "byteOffset" : 676580
        },
        {
            "buffer" : 0,
            "byteLength" : 1248,
            "byteOffset" : 1272536,
            "target" : 34962
        },
        {
            "buffer" : 0,
            "byteLength" : 1248,
            "byteOffset" : 1273784,
            "target" : 34962
        },
        {
            "buffer" : 0,
            "byteLength" : 832,
            "byteOffset" : 1275032,
            "target" : 34962
        },
        {
            "buffer" : 0,
            "byteLength" : 312,
            "byteOffset" : 1275864,
            "target" : 34963
        },
        {
            "buffer" : 0,
            "byteLength" : 236792,
            "byteOffset" : 1276176
        },
        {
            "buffer" : 0,
            "byteLength" : 35160,
            "byteOffset" : 1512968,
            "target" : 34962
        },
        {
            "buffer" : 0,
            "byteLength" : 35160,
            "byteOffset" : 1548128,
            "target" : 34962
        },
        {
            "buffer" : 0,
            "byteLength" : 23440,
            "byteOffset" : 1583288,
            "target" : 34962
        },
        {
            "buffer" : 0,
            "byteLength" : 8832,
            "byteOffset" : 1606728,
            "target" : 34963
        }
    ],
    "samplers" : [
        {
            "magFilter" : 9729,
            "minFilter" : 9987
        }
    ],
    "buffers" : [
        {
            "byteLength" : 1615560,
            "uri" : "data:application/octet-stream;base64,"
        }
    ]
}
